<svg xmlns="http://www.w3.org/2000/svg" viewBox="0 0 800 1000">
<rect width="800" height="1000" fill="#f1ead8"/><path d="M0 180 Q 240 166 440 186 T 800 176" stroke="#e3dac2" stroke-width="2" fill="none"/><path d="M0 340 Q 240 326 440 346 T 800 336" stroke="#e3dac2" stroke-width="2" fill="none"/><path d="M0 500 Q 240 486 440 506 T 800 496" stroke="#e3dac2" stroke-width="2" fill="none"/><path d="M0 660 Q 240 646 440 666 T 800 656" stroke="#e3dac2" stroke-width="2" fill="none"/><path d="M0 820 Q 240 806 440 826 T 800 816" stroke="#e3dac2" stroke-width="2" fill="none"/>
<g transform="translate(400.0,500.0)" text-anchor="middle">
<g transform="translate(0,-26)"><circle r="26" fill="#e7efe4"/>
<g stroke="#213c26" stroke-width="2" fill="none" stroke-linecap="round" stroke-linejoin="round">
<path d="M-9 10 L6 -7 M6 -7 L10 -11 M-1 -9 C-1 -13 3 -15 7 -14 L11 -10 C12 -6 10 -3 6 -3 Z"/>
</g></g>
<text y="34" font-family="Georgia,serif" font-size="17" fill="#213c26" font-weight="bold">Basement Finishing</text>
<text y="56" font-family="Arial,sans-serif" font-size="12" fill="#8a8268">Project photo coming soon</text>
</g></svg>